<mxfile host="65bd71144e">
    <diagram id="w7KgsrHeSY-I6MZtgf04" name="Page-1">
        <mxGraphModel dx="1433" dy="921" grid="1" gridSize="10" guides="1" tooltips="1" connect="1" arrows="1" fold="1" page="1" pageScale="1" pageWidth="827" pageHeight="1169" math="0" shadow="0">
            <root>
                <mxCell id="0"/>
                <mxCell id="1" parent="0"/>
                <mxCell id="4" value="Websites" style="swimlane;childLayout=stackLayout;horizontal=1;startSize=30;horizontalStack=0;rounded=1;fontSize=14;fontStyle=0;strokeWidth=2;resizeParent=0;resizeLast=1;shadow=0;dashed=0;align=center;" parent="1" vertex="1">
                    <mxGeometry x="80" y="620" width="160" height="170" as="geometry"/>
                </mxCell>
                <mxCell id="5" value="Id: int PK&#10;URL: string&#10;Scan: boolean&#10;DNS: boolean&#10;SSL: boolean&#10;Create_at: date&#10;Updated_at: date&#10;&#10;CompanyId: in FK" style="align=left;strokeColor=none;fillColor=none;spacingLeft=4;fontSize=12;verticalAlign=top;resizable=0;rotatable=0;part=1;" parent="4" vertex="1">
                    <mxGeometry y="30" width="160" height="140" as="geometry"/>
                </mxCell>
                <mxCell id="9" value="link_report" style="swimlane;childLayout=stackLayout;horizontal=1;startSize=30;horizontalStack=0;rounded=1;fontSize=14;fontStyle=0;strokeWidth=2;resizeParent=0;resizeLast=1;shadow=0;dashed=0;align=center;" parent="1" vertex="1">
                    <mxGeometry x="260" y="620" width="160" height="150" as="geometry"/>
                </mxCell>
                <mxCell id="10" value="Id: int PK&#10;URL: string&#10;Status_code: int&#10;Error_message: string&#10;Created_at: date&#10;&#10;WebsiteId: int FK&#10;&#10;" style="align=left;strokeColor=none;fillColor=none;spacingLeft=4;fontSize=12;verticalAlign=top;resizable=0;rotatable=0;part=1;" parent="9" vertex="1">
                    <mxGeometry y="30" width="160" height="120" as="geometry"/>
                </mxCell>
                <mxCell id="11" value="dns_checks" style="swimlane;childLayout=stackLayout;horizontal=1;startSize=30;horizontalStack=0;rounded=1;fontSize=14;fontStyle=0;strokeWidth=2;resizeParent=0;resizeLast=1;shadow=0;dashed=0;align=center;" parent="1" vertex="1">
                    <mxGeometry x="440" y="620" width="160" height="160" as="geometry"/>
                </mxCell>
                <mxCell id="12" value="Id: int PK&#10;URL: string&#10;NS_servers: boolean&#10;DNS_records: boolean&#10;Error_message: string&#10;Created_at: date&#10;&#10;WebsiteId: int FK&#10;&#10;" style="align=left;strokeColor=none;fillColor=none;spacingLeft=4;fontSize=12;verticalAlign=top;resizable=0;rotatable=0;part=1;" parent="11" vertex="1">
                    <mxGeometry y="30" width="160" height="130" as="geometry"/>
                </mxCell>
                <mxCell id="13" value="ssl_checks" style="swimlane;childLayout=stackLayout;horizontal=1;startSize=30;horizontalStack=0;rounded=1;fontSize=14;fontStyle=0;strokeWidth=2;resizeParent=0;resizeLast=1;shadow=0;dashed=0;align=center;" parent="1" vertex="1">
                    <mxGeometry x="620" y="620" width="160" height="130" as="geometry"/>
                </mxCell>
                <mxCell id="14" value="Id: int PK&#10;URL: string&#10;Expiration_date: date&#10;Created_at: date&#10;&#10;WebsiteId: int FK&#10;&#10;" style="align=left;strokeColor=none;fillColor=none;spacingLeft=4;fontSize=12;verticalAlign=top;resizable=0;rotatable=0;part=1;" parent="13" vertex="1">
                    <mxGeometry y="30" width="160" height="100" as="geometry"/>
                </mxCell>
                <mxCell id="19" value="link_report" style="whiteSpace=wrap;html=1;align=center;" parent="1" vertex="1">
                    <mxGeometry x="405" y="210" width="100" height="40" as="geometry"/>
                </mxCell>
                <mxCell id="21" value="&lt;u&gt;Id&lt;/u&gt;" style="ellipse;whiteSpace=wrap;html=1;align=center;" parent="1" vertex="1">
                    <mxGeometry x="405" y="140" width="100" height="40" as="geometry"/>
                </mxCell>
                <mxCell id="22" value="Status_code" style="ellipse;whiteSpace=wrap;html=1;align=center;" parent="1" vertex="1">
                    <mxGeometry x="511" y="160" width="100" height="40" as="geometry"/>
                </mxCell>
                <mxCell id="24" value="Error_message" style="ellipse;whiteSpace=wrap;html=1;align=center;" parent="1" vertex="1">
                    <mxGeometry x="535" y="210" width="100" height="40" as="geometry"/>
                </mxCell>
                <mxCell id="25" value="Websites" style="whiteSpace=wrap;html=1;align=center;" parent="1" vertex="1">
                    <mxGeometry x="-20" y="170" width="100" height="40" as="geometry"/>
                </mxCell>
                <mxCell id="26" value="Created_at" style="ellipse;whiteSpace=wrap;html=1;align=center;" parent="1" vertex="1">
                    <mxGeometry x="-30" y="80" width="100" height="40" as="geometry"/>
                </mxCell>
                <mxCell id="27" value="Updated_at" style="ellipse;whiteSpace=wrap;html=1;align=center;" parent="1" vertex="1">
                    <mxGeometry x="70" y="100" width="100" height="40" as="geometry"/>
                </mxCell>
                <mxCell id="29" value="&lt;u&gt;Id&lt;/u&gt;" style="ellipse;whiteSpace=wrap;html=1;align=center;" parent="1" vertex="1">
                    <mxGeometry x="-190" y="130" width="100" height="40" as="geometry"/>
                </mxCell>
                <mxCell id="30" value="URL" style="ellipse;whiteSpace=wrap;html=1;align=center;" parent="1" vertex="1">
                    <mxGeometry x="-133" y="90" width="100" height="40" as="geometry"/>
                </mxCell>
                <mxCell id="31" value="ssl_checks" style="whiteSpace=wrap;html=1;align=center;" parent="1" vertex="1">
                    <mxGeometry y="490" width="100" height="40" as="geometry"/>
                </mxCell>
                <mxCell id="32" value="&lt;u&gt;Id&lt;/u&gt;" style="ellipse;whiteSpace=wrap;html=1;align=center;" parent="1" vertex="1">
                    <mxGeometry x="-100" y="440" width="100" height="40" as="geometry"/>
                </mxCell>
                <mxCell id="35" value="Expiration_date" style="ellipse;whiteSpace=wrap;html=1;align=center;" parent="1" vertex="1">
                    <mxGeometry x="-120" y="490" width="100" height="40" as="geometry"/>
                </mxCell>
                <mxCell id="37" value="dns_checks" style="whiteSpace=wrap;html=1;align=center;" parent="1" vertex="1">
                    <mxGeometry x="260" y="410" width="100" height="40" as="geometry"/>
                </mxCell>
                <mxCell id="38" value="&lt;u&gt;Id&lt;/u&gt;" style="ellipse;whiteSpace=wrap;html=1;align=center;" parent="1" vertex="1">
                    <mxGeometry x="340" y="350" width="100" height="40" as="geometry"/>
                </mxCell>
                <mxCell id="40" value="Error_message" style="ellipse;whiteSpace=wrap;html=1;align=center;" parent="1" vertex="1">
                    <mxGeometry x="390" y="400" width="100" height="40" as="geometry"/>
                </mxCell>
                <mxCell id="44" value="Created_at" style="ellipse;whiteSpace=wrap;html=1;align=center;" parent="1" vertex="1">
                    <mxGeometry x="511" y="260" width="100" height="40" as="geometry"/>
                </mxCell>
                <mxCell id="45" value="Created_at" style="ellipse;whiteSpace=wrap;html=1;align=center;" parent="1" vertex="1">
                    <mxGeometry x="-90" y="545" width="100" height="40" as="geometry"/>
                </mxCell>
                <mxCell id="46" value="Created_at" style="ellipse;whiteSpace=wrap;html=1;align=center;" parent="1" vertex="1">
                    <mxGeometry x="360" y="460" width="100" height="40" as="geometry"/>
                </mxCell>
                <mxCell id="48" value="Reports" style="shape=rhombus;perimeter=rhombusPerimeter;whiteSpace=wrap;html=1;align=center;" parent="1" vertex="1">
                    <mxGeometry x="210" y="200" width="120" height="60" as="geometry"/>
                </mxCell>
                <mxCell id="51" value="" style="shape=link;html=1;rounded=0;entryX=0;entryY=0.5;entryDx=0;entryDy=0;exitX=1;exitY=0.5;exitDx=0;exitDy=0;" parent="1" source="25" target="48" edge="1">
                    <mxGeometry relative="1" as="geometry">
                        <mxPoint x="480" y="480" as="sourcePoint"/>
                        <mxPoint x="640" y="480" as="targetPoint"/>
                    </mxGeometry>
                </mxCell>
                <mxCell id="52" value="1" style="resizable=0;html=1;align=right;verticalAlign=bottom;" parent="51" connectable="0" vertex="1">
                    <mxGeometry x="1" relative="1" as="geometry"/>
                </mxCell>
                <mxCell id="53" value="" style="endArrow=none;html=1;rounded=0;entryX=1;entryY=0.5;entryDx=0;entryDy=0;exitX=0;exitY=0.5;exitDx=0;exitDy=0;" parent="1" source="19" target="48" edge="1">
                    <mxGeometry relative="1" as="geometry">
                        <mxPoint x="480" y="480" as="sourcePoint"/>
                        <mxPoint x="640" y="480" as="targetPoint"/>
                    </mxGeometry>
                </mxCell>
                <mxCell id="54" value="N" style="resizable=0;html=1;align=right;verticalAlign=bottom;" parent="53" connectable="0" vertex="1">
                    <mxGeometry x="1" relative="1" as="geometry"/>
                </mxCell>
                <mxCell id="55" value="Checks" style="shape=rhombus;perimeter=rhombusPerimeter;whiteSpace=wrap;html=1;align=center;" parent="1" vertex="1">
                    <mxGeometry x="110" y="290" width="120" height="60" as="geometry"/>
                </mxCell>
                <mxCell id="56" value="" style="shape=link;html=1;rounded=0;entryX=0;entryY=0;entryDx=0;entryDy=0;exitX=0.75;exitY=1;exitDx=0;exitDy=0;" parent="1" source="25" target="55" edge="1">
                    <mxGeometry relative="1" as="geometry">
                        <mxPoint x="454" y="300" as="sourcePoint"/>
                        <mxPoint x="624" y="570" as="targetPoint"/>
                    </mxGeometry>
                </mxCell>
                <mxCell id="57" value="1" style="resizable=0;html=1;align=right;verticalAlign=bottom;" parent="56" connectable="0" vertex="1">
                    <mxGeometry x="1" relative="1" as="geometry">
                        <mxPoint x="10" y="-5" as="offset"/>
                    </mxGeometry>
                </mxCell>
                <mxCell id="58" value="" style="endArrow=none;html=1;rounded=0;exitX=0;exitY=0;exitDx=0;exitDy=0;entryX=1;entryY=1;entryDx=0;entryDy=0;" parent="1" source="37" target="55" edge="1">
                    <mxGeometry relative="1" as="geometry">
                        <mxPoint x="64" y="280" as="sourcePoint"/>
                        <mxPoint x="260" y="340" as="targetPoint"/>
                    </mxGeometry>
                </mxCell>
                <mxCell id="59" value="N" style="resizable=0;html=1;align=right;verticalAlign=bottom;" parent="58" connectable="0" vertex="1">
                    <mxGeometry x="1" relative="1" as="geometry">
                        <mxPoint y="25" as="offset"/>
                    </mxGeometry>
                </mxCell>
                <mxCell id="60" value="Has" style="shape=rhombus;perimeter=rhombusPerimeter;whiteSpace=wrap;html=1;align=center;" parent="1" vertex="1">
                    <mxGeometry x="-10" y="320" width="120" height="60" as="geometry"/>
                </mxCell>
                <mxCell id="61" value="" style="shape=link;html=1;rounded=0;entryX=0.5;entryY=0;entryDx=0;entryDy=0;exitX=0.5;exitY=1;exitDx=0;exitDy=0;" parent="1" source="25" target="60" edge="1">
                    <mxGeometry relative="1" as="geometry">
                        <mxPoint x="260" y="410" as="sourcePoint"/>
                        <mxPoint x="430" y="680" as="targetPoint"/>
                    </mxGeometry>
                </mxCell>
                <mxCell id="62" value="1" style="resizable=0;html=1;align=right;verticalAlign=bottom;" parent="61" connectable="0" vertex="1">
                    <mxGeometry x="1" relative="1" as="geometry">
                        <mxPoint x="20" y="10" as="offset"/>
                    </mxGeometry>
                </mxCell>
                <mxCell id="63" value="" style="endArrow=none;html=1;rounded=0;entryX=0.5;entryY=1;entryDx=0;entryDy=0;exitX=0.5;exitY=0;exitDx=0;exitDy=0;" parent="1" source="31" target="60" edge="1">
                    <mxGeometry relative="1" as="geometry">
                        <mxPoint x="29" y="490" as="sourcePoint"/>
                        <mxPoint x="59" y="380" as="targetPoint"/>
                    </mxGeometry>
                </mxCell>
                <mxCell id="64" value="N" style="resizable=0;html=1;align=right;verticalAlign=bottom;" parent="63" connectable="0" vertex="1">
                    <mxGeometry x="1" relative="1" as="geometry">
                        <mxPoint x="-10" y="20" as="offset"/>
                    </mxGeometry>
                </mxCell>
                <mxCell id="65" value="" style="endArrow=none;html=1;rounded=0;exitX=1;exitY=1;exitDx=0;exitDy=0;entryX=0;entryY=0;entryDx=0;entryDy=0;" parent="1" source="37" target="46" edge="1">
                    <mxGeometry relative="1" as="geometry">
                        <mxPoint x="480" y="480" as="sourcePoint"/>
                        <mxPoint x="640" y="480" as="targetPoint"/>
                    </mxGeometry>
                </mxCell>
                <mxCell id="66" value="" style="endArrow=none;html=1;rounded=0;exitX=1;exitY=0.5;exitDx=0;exitDy=0;entryX=0;entryY=0.5;entryDx=0;entryDy=0;" parent="1" source="37" target="40" edge="1">
                    <mxGeometry relative="1" as="geometry">
                        <mxPoint x="370" y="460" as="sourcePoint"/>
                        <mxPoint x="384.64466094067257" y="475.85786437626894" as="targetPoint"/>
                    </mxGeometry>
                </mxCell>
                <mxCell id="67" value="" style="endArrow=none;html=1;rounded=0;exitX=0.75;exitY=0;exitDx=0;exitDy=0;entryX=0;entryY=1;entryDx=0;entryDy=0;" parent="1" source="37" target="38" edge="1">
                    <mxGeometry relative="1" as="geometry">
                        <mxPoint x="370" y="440" as="sourcePoint"/>
                        <mxPoint x="400" y="430" as="targetPoint"/>
                    </mxGeometry>
                </mxCell>
                <mxCell id="68" value="" style="endArrow=none;html=1;rounded=0;exitX=0;exitY=0;exitDx=0;exitDy=0;" parent="1" source="44" edge="1">
                    <mxGeometry relative="1" as="geometry">
                        <mxPoint x="280" y="440" as="sourcePoint"/>
                        <mxPoint x="505" y="250" as="targetPoint"/>
                    </mxGeometry>
                </mxCell>
                <mxCell id="69" value="" style="endArrow=none;html=1;rounded=0;exitX=0;exitY=0.5;exitDx=0;exitDy=0;entryX=1;entryY=0.5;entryDx=0;entryDy=0;" parent="1" source="24" target="19" edge="1">
                    <mxGeometry relative="1" as="geometry">
                        <mxPoint x="535.6446609406726" y="285.85786437626916" as="sourcePoint"/>
                        <mxPoint x="515" y="260" as="targetPoint"/>
                    </mxGeometry>
                </mxCell>
                <mxCell id="70" value="" style="endArrow=none;html=1;rounded=0;exitX=0;exitY=1;exitDx=0;exitDy=0;entryX=1;entryY=0;entryDx=0;entryDy=0;" parent="1" source="22" target="19" edge="1">
                    <mxGeometry relative="1" as="geometry">
                        <mxPoint x="551" y="240" as="sourcePoint"/>
                        <mxPoint x="515" y="240" as="targetPoint"/>
                    </mxGeometry>
                </mxCell>
                <mxCell id="71" value="" style="endArrow=none;html=1;rounded=0;exitX=0.5;exitY=1;exitDx=0;exitDy=0;entryX=0.5;entryY=0;entryDx=0;entryDy=0;" parent="1" source="21" target="19" edge="1">
                    <mxGeometry relative="1" as="geometry">
                        <mxPoint x="535.6446609406726" y="194.14213562373084" as="sourcePoint"/>
                        <mxPoint x="445" y="211" as="targetPoint"/>
                    </mxGeometry>
                </mxCell>
                <mxCell id="72" value="" style="endArrow=none;html=1;rounded=0;exitX=0.75;exitY=0;exitDx=0;exitDy=0;entryX=0;entryY=1;entryDx=0;entryDy=0;" parent="1" source="25" target="27" edge="1">
                    <mxGeometry relative="1" as="geometry">
                        <mxPoint x="520" y="160" as="sourcePoint"/>
                        <mxPoint x="520.1999999999998" y="200.51999999999998" as="targetPoint"/>
                    </mxGeometry>
                </mxCell>
                <mxCell id="73" value="" style="endArrow=none;html=1;rounded=0;exitX=0.392;exitY=0.013;exitDx=0;exitDy=0;entryX=0.5;entryY=1;entryDx=0;entryDy=0;exitPerimeter=0;" parent="1" source="25" target="26" edge="1">
                    <mxGeometry relative="1" as="geometry">
                        <mxPoint x="65" y="180" as="sourcePoint"/>
                        <mxPoint x="104.64466094067257" y="144.1421356237313" as="targetPoint"/>
                    </mxGeometry>
                </mxCell>
                <mxCell id="74" value="" style="endArrow=none;html=1;rounded=0;exitX=0;exitY=0;exitDx=0;exitDy=0;entryX=1;entryY=1;entryDx=0;entryDy=0;" parent="1" source="25" target="30" edge="1">
                    <mxGeometry relative="1" as="geometry">
                        <mxPoint x="29.199999999999818" y="180.51999999999998" as="sourcePoint"/>
                        <mxPoint x="30" y="140" as="targetPoint"/>
                    </mxGeometry>
                </mxCell>
                <mxCell id="76" value="" style="endArrow=none;html=1;rounded=0;exitX=0;exitY=0.5;exitDx=0;exitDy=0;entryX=1;entryY=0.5;entryDx=0;entryDy=0;" parent="1" source="25" target="29" edge="1">
                    <mxGeometry relative="1" as="geometry">
                        <mxPoint x="-10" y="210" as="sourcePoint"/>
                        <mxPoint x="-60" y="220" as="targetPoint"/>
                    </mxGeometry>
                </mxCell>
                <mxCell id="77" value="" style="endArrow=none;html=1;rounded=0;exitX=1;exitY=0;exitDx=0;exitDy=0;entryX=0.25;entryY=1;entryDx=0;entryDy=0;" parent="1" source="45" target="31" edge="1">
                    <mxGeometry relative="1" as="geometry">
                        <mxPoint x="540" y="500" as="sourcePoint"/>
                        <mxPoint x="700" y="500" as="targetPoint"/>
                    </mxGeometry>
                </mxCell>
                <mxCell id="78" value="" style="endArrow=none;html=1;rounded=0;exitX=0;exitY=0;exitDx=0;exitDy=0;entryX=1;entryY=1;entryDx=0;entryDy=0;" parent="1" source="31" target="32" edge="1">
                    <mxGeometry relative="1" as="geometry">
                        <mxPoint x="5.355339059327434" y="560.8578643762689" as="sourcePoint"/>
                        <mxPoint x="35" y="540" as="targetPoint"/>
                    </mxGeometry>
                </mxCell>
                <mxCell id="79" value="" style="endArrow=none;html=1;rounded=0;exitX=0;exitY=0.5;exitDx=0;exitDy=0;entryX=1;entryY=0.5;entryDx=0;entryDy=0;" parent="1" source="31" target="35" edge="1">
                    <mxGeometry relative="1" as="geometry">
                        <mxPoint x="15.355339059327434" y="570.8578643762689" as="sourcePoint"/>
                        <mxPoint x="45" y="550" as="targetPoint"/>
                    </mxGeometry>
                </mxCell>
                <mxCell id="84" value="URL" style="ellipse;whiteSpace=wrap;html=1;align=center;" parent="1" vertex="1">
                    <mxGeometry x="405" y="270" width="100" height="40" as="geometry"/>
                </mxCell>
                <mxCell id="85" value="Companies" style="whiteSpace=wrap;html=1;align=center;" parent="1" vertex="1">
                    <mxGeometry x="-233" y="340" width="100" height="40" as="geometry"/>
                </mxCell>
                <mxCell id="86" value="&lt;u&gt;Id&lt;/u&gt;" style="ellipse;whiteSpace=wrap;html=1;align=center;" parent="1" vertex="1">
                    <mxGeometry x="-363" y="340" width="100" height="40" as="geometry"/>
                </mxCell>
                <mxCell id="87" value="Company_name" style="ellipse;whiteSpace=wrap;html=1;align=center;" parent="1" vertex="1">
                    <mxGeometry x="-310" y="400" width="100" height="40" as="geometry"/>
                </mxCell>
                <mxCell id="88" value="Belongs to" style="shape=rhombus;perimeter=rhombusPerimeter;whiteSpace=wrap;html=1;align=center;" parent="1" vertex="1">
                    <mxGeometry x="-110" y="260" width="120" height="60" as="geometry"/>
                </mxCell>
                <mxCell id="89" value="" style="endArrow=none;html=1;rounded=0;entryX=1;entryY=0;entryDx=0;entryDy=0;exitX=0.5;exitY=1;exitDx=0;exitDy=0;" parent="1" source="85" target="87" edge="1">
                    <mxGeometry relative="1" as="geometry">
                        <mxPoint x="80" y="470" as="sourcePoint"/>
                        <mxPoint x="240" y="470" as="targetPoint"/>
                    </mxGeometry>
                </mxCell>
                <mxCell id="90" value="" style="endArrow=none;html=1;rounded=0;entryX=0;entryY=0.5;entryDx=0;entryDy=0;exitX=1;exitY=0.5;exitDx=0;exitDy=0;" parent="1" source="86" target="85" edge="1">
                    <mxGeometry relative="1" as="geometry">
                        <mxPoint x="-173" y="390" as="sourcePoint"/>
                        <mxPoint x="-207.64466094067257" y="415.85786437626894" as="targetPoint"/>
                    </mxGeometry>
                </mxCell>
                <mxCell id="91" value="" style="shape=link;html=1;rounded=0;entryX=0;entryY=1;entryDx=0;entryDy=0;exitX=1;exitY=0;exitDx=0;exitDy=0;" parent="1" source="85" target="88" edge="1">
                    <mxGeometry relative="1" as="geometry">
                        <mxPoint x="80" y="470" as="sourcePoint"/>
                        <mxPoint x="240" y="470" as="targetPoint"/>
                    </mxGeometry>
                </mxCell>
                <mxCell id="92" value="1" style="resizable=0;html=1;align=right;verticalAlign=bottom;" parent="91" connectable="0" vertex="1">
                    <mxGeometry x="1" relative="1" as="geometry">
                        <mxPoint x="-20" y="15" as="offset"/>
                    </mxGeometry>
                </mxCell>
                <mxCell id="93" value="" style="endArrow=none;html=1;rounded=0;entryX=0.632;entryY=0.111;entryDx=0;entryDy=0;exitX=0.25;exitY=1;exitDx=0;exitDy=0;entryPerimeter=0;" parent="1" source="25" target="88" edge="1">
                    <mxGeometry relative="1" as="geometry">
                        <mxPoint x="30" y="450" as="sourcePoint"/>
                        <mxPoint x="190" y="450" as="targetPoint"/>
                    </mxGeometry>
                </mxCell>
                <mxCell id="94" value="1" style="resizable=0;html=1;align=right;verticalAlign=bottom;" parent="93" connectable="0" vertex="1">
                    <mxGeometry x="1" relative="1" as="geometry"/>
                </mxCell>
                <mxCell id="95" value="Companies" style="swimlane;childLayout=stackLayout;horizontal=1;startSize=30;horizontalStack=0;rounded=1;fontSize=14;fontStyle=0;strokeWidth=2;resizeParent=0;resizeLast=1;shadow=0;dashed=0;align=center;" parent="1" vertex="1">
                    <mxGeometry x="-100" y="620" width="160" height="130" as="geometry"/>
                </mxCell>
                <mxCell id="96" value="Id: int PK&#10;Company_name: string" style="align=left;strokeColor=none;fillColor=none;spacingLeft=4;fontSize=12;verticalAlign=top;resizable=0;rotatable=0;part=1;" parent="95" vertex="1">
                    <mxGeometry y="30" width="160" height="100" as="geometry"/>
                </mxCell>
                <mxCell id="97" value="" style="endArrow=none;html=1;rounded=0;exitX=0.5;exitY=0;exitDx=0;exitDy=0;entryX=0.5;entryY=1;entryDx=0;entryDy=0;" parent="1" source="84" target="19" edge="1">
                    <mxGeometry relative="1" as="geometry">
                        <mxPoint x="529.6446609406726" y="275.85786437626894" as="sourcePoint"/>
                        <mxPoint x="515" y="260" as="targetPoint"/>
                    </mxGeometry>
                </mxCell>
                <mxCell id="98" value="Valid" style="ellipse;whiteSpace=wrap;html=1;align=center;" vertex="1" parent="1">
                    <mxGeometry x="20" y="550" width="100" height="40" as="geometry"/>
                </mxCell>
                <mxCell id="99" value="" style="endArrow=none;html=1;rounded=0;exitX=0.5;exitY=1;exitDx=0;exitDy=0;entryX=0.5;entryY=0;entryDx=0;entryDy=0;" edge="1" parent="1" source="31" target="98">
                    <mxGeometry relative="1" as="geometry">
                        <mxPoint x="10" y="520" as="sourcePoint"/>
                        <mxPoint x="-10" y="520" as="targetPoint"/>
                    </mxGeometry>
                </mxCell>
                <mxCell id="100" value="URL" style="ellipse;whiteSpace=wrap;html=1;align=center;" vertex="1" parent="1">
                    <mxGeometry x="120" y="520" width="100" height="40" as="geometry"/>
                </mxCell>
                <mxCell id="101" value="" style="endArrow=none;html=1;rounded=0;exitX=1;exitY=0.5;exitDx=0;exitDy=0;entryX=0;entryY=0;entryDx=0;entryDy=0;" edge="1" parent="1" source="31" target="100">
                    <mxGeometry relative="1" as="geometry">
                        <mxPoint x="60" y="540" as="sourcePoint"/>
                        <mxPoint x="80" y="560" as="targetPoint"/>
                    </mxGeometry>
                </mxCell>
                <mxCell id="102" value="DNS" style="ellipse;whiteSpace=wrap;html=1;align=center;" vertex="1" parent="1">
                    <mxGeometry x="-190" y="180" width="100" height="40" as="geometry"/>
                </mxCell>
                <mxCell id="104" value="Scan" style="ellipse;whiteSpace=wrap;html=1;align=center;" vertex="1" parent="1">
                    <mxGeometry x="120" y="150" width="100" height="40" as="geometry"/>
                </mxCell>
                <mxCell id="105" value="SSL" style="ellipse;whiteSpace=wrap;html=1;align=center;" vertex="1" parent="1">
                    <mxGeometry x="-170" y="230" width="100" height="40" as="geometry"/>
                </mxCell>
                <mxCell id="106" value="" style="endArrow=none;html=1;rounded=0;entryX=1;entryY=0.5;entryDx=0;entryDy=0;exitX=0;exitY=0.75;exitDx=0;exitDy=0;" edge="1" parent="1" source="25" target="102">
                    <mxGeometry relative="1" as="geometry">
                        <mxPoint x="-60" y="190" as="sourcePoint"/>
                        <mxPoint x="-80" y="160" as="targetPoint"/>
                    </mxGeometry>
                </mxCell>
                <mxCell id="107" value="" style="endArrow=none;html=1;rounded=0;entryX=1;entryY=0;entryDx=0;entryDy=0;exitX=0;exitY=1;exitDx=0;exitDy=0;" edge="1" parent="1" source="25" target="105">
                    <mxGeometry relative="1" as="geometry">
                        <mxPoint x="-10" y="210" as="sourcePoint"/>
                        <mxPoint x="-80" y="210" as="targetPoint"/>
                    </mxGeometry>
                </mxCell>
                <mxCell id="108" value="" style="endArrow=none;html=1;rounded=0;entryX=1;entryY=0;entryDx=0;entryDy=0;exitX=0;exitY=0.5;exitDx=0;exitDy=0;" edge="1" parent="1" source="104" target="25">
                    <mxGeometry relative="1" as="geometry">
                        <mxPoint x="-10" y="220" as="sourcePoint"/>
                        <mxPoint x="-74.64466094067257" y="245.85786437626905" as="targetPoint"/>
                    </mxGeometry>
                </mxCell>
                <mxCell id="109" value="DNS_records" style="ellipse;whiteSpace=wrap;html=1;align=center;" vertex="1" parent="1">
                    <mxGeometry x="270" y="490" width="100" height="40" as="geometry"/>
                </mxCell>
                <mxCell id="110" value="NS_servers" style="ellipse;whiteSpace=wrap;html=1;align=center;" vertex="1" parent="1">
                    <mxGeometry x="180" y="460" width="100" height="40" as="geometry"/>
                </mxCell>
                <mxCell id="111" value="URL" style="ellipse;whiteSpace=wrap;html=1;align=center;" vertex="1" parent="1">
                    <mxGeometry x="130" y="420" width="100" height="40" as="geometry"/>
                </mxCell>
                <mxCell id="112" value="" style="endArrow=none;html=1;rounded=0;exitX=0;exitY=0.5;exitDx=0;exitDy=0;entryX=1;entryY=0.5;entryDx=0;entryDy=0;" edge="1" parent="1" source="37" target="111">
                    <mxGeometry relative="1" as="geometry">
                        <mxPoint x="345" y="420" as="sourcePoint"/>
                        <mxPoint x="364.64466094067257" y="394.14213562373084" as="targetPoint"/>
                    </mxGeometry>
                </mxCell>
                <mxCell id="113" value="" style="endArrow=none;html=1;rounded=0;exitX=0.25;exitY=1;exitDx=0;exitDy=0;entryX=1;entryY=0;entryDx=0;entryDy=0;" edge="1" parent="1" source="37" target="110">
                    <mxGeometry relative="1" as="geometry">
                        <mxPoint x="270" y="440" as="sourcePoint"/>
                        <mxPoint x="230" y="450" as="targetPoint"/>
                    </mxGeometry>
                </mxCell>
                <mxCell id="114" value="" style="endArrow=none;html=1;rounded=0;exitX=0.5;exitY=1;exitDx=0;exitDy=0;entryX=0.5;entryY=0;entryDx=0;entryDy=0;" edge="1" parent="1" source="37" target="109">
                    <mxGeometry relative="1" as="geometry">
                        <mxPoint x="295" y="460" as="sourcePoint"/>
                        <mxPoint x="265.35533905932743" y="485.8578643762687" as="targetPoint"/>
                    </mxGeometry>
                </mxCell>
            </root>
        </mxGraphModel>
    </diagram>
</mxfile>